#N canvas 91 28 1440 768 10;
#X obj -152 42 bng 15 250 50 0 empty empty empty 17 7 0 10 -262144
-1 -1;
#X obj -280 191 print;
#X obj -172 150 spigot;
#X obj -139 127 tgl 15 0 empty empty empty 17 7 0 10 -262144 -1 -1
1 1;
#X obj -279 157 spigot;
#X obj -246 133 tgl 15 0 empty empty empty 17 7 0 10 -262144 -1 -1
0 1;
#X text -308 215 See what is coming in;
#X obj 482 26 tgl 25 0 empty empty Enable_Audio 30 12 0 12 -4034 -1
-1 1 1;
#X msg 481 57 \; pd dsp \$1;
#X text -255 100 print what you are receiving;
#X obj -116 53 unpackOSC;
#X floatatom -131 314 5 0 0 0 - - -, f 5;
#X floatatom -60 312 5 0 0 0 - - -, f 5;
#X floatatom 12 308 5 0 0 0 - - -, f 5;
#X text -93 314 x;
#X text -78 309 y;
#X text 216 265 z;
#X obj -116 7 udpreceive 7110;
#X obj -134 243 unpack s f f f f f;
#X floatatom -19 930 5 0 50 0 - - -, f 5;
#X obj -139 210 routeOSC /finger0-0;
#X obj 372 18 bng 15 250 50 0 empty empty empty 17 7 0 10 -262144 -1
-1;
#X obj -26 516 float;
#X floatatom -26 542 5 0 0 0 - - -, f 5;
#X floatatom 71 589 5 0 10.555 0 - - -, f 5;
#X obj 58 651 route 0 1;
#X obj 86 696 bng 15 250 50 0 empty empty empty 17 7 0 10 -262144 -1
-1;
#X obj 362 152 metro;
#X obj 349 123 tgl 15 0 empty empty empty 17 7 0 10 -262144 -1 -1 1
1;
#X floatatom 369 124 5 0 0 0 - - -, f 5;
#X obj 364 180 bng 15 250 50 0 empty empty empty 17 7 0 10 -262144
-1 -1;
#X obj 60 623 <;
#X obj 10 592 + 0.1;
#X obj 63 817 float;
#X floatatom 77 755 5 0 0 0 - - -, f 5;
#X text -80 539 startVal;
#X floatatom -188 619 5 0 10.555 0 - - -, f 5;
#X obj -201 681 route 0 1;
#X obj -173 726 bng 15 250 50 0 empty empty empty 17 7 0 10 -262144
-1 -1;
#X obj -176 855 float;
#X floatatom -140 775 5 0 0 0 - - -, f 5;
#X text 4 674 If finger moves to right;
#X obj -199 653 >;
#X obj -249 622 - 0.1;
#X floatatom -89 1005 5 0 0 0 - - -, f 5;
#X obj -89 984 bng 40 250 50 0 empty empty empty 17 7 0 10 -258113
-1 -1;
#X obj 233 1009 osc~ 440;
#X obj 209 1113 dac~;
#X obj 189 1067 tgl 15 0 empty empty empty 17 7 0 10 -262144 -1 -1
1 1;
#X obj 218 1056 *~ 1;
#X floatatom 300 1091 5 0 0 0 - - -, f 5;
#X obj 308 1010 hsl 128 15 0 127 0 0 empty empty empty -2 -8 0 10 -258113
-1 -1 12700 1;
#X obj 309 1052 / 127;
#X obj -169 817 - 0.2;
#X obj 90 787 + 0.2;
#X obj 411 460 float;
#X floatatom 411 486 5 0 0 0 - - -, f 5;
#X floatatom 508 533 5 0 10.555 0 - - -, f 5;
#X obj 495 595 route 0 1;
#X obj 523 640 bng 15 250 50 0 empty empty empty 17 7 0 10 -262144
-1 -1;
#X obj 497 567 <;
#X obj 447 536 + 0.1;
#X obj 520 769 float;
#X floatatom 514 699 5 0 0 0 - - -, f 5;
#X text 357 483 startVal;
#X floatatom 249 563 5 0 10.555 0 - - -, f 5;
#X obj 236 625 route 0 1;
#X obj 264 670 bng 15 250 50 0 empty empty empty 17 7 0 10 -262144
-1 -1;
#X obj 261 799 float;
#X floatatom 297 719 5 0 0 0 - - -, f 5;
#X obj 238 597 >;
#X obj 188 566 - 0.1;
#X floatatom 308 899 5 0 0 0 - - -, f 5;
#X obj 265 924 bng 15 250 50 0 empty empty empty 17 7 0 10 -262144
-1 -1;
#X text 15 918 FREQUENCY;
#X text -99 1021 reset freq to 0;
#X floatatom 855 801 5 0 0 0 - - -, f 5;
#X obj 856 485 float;
#X floatatom 856 511 5 0 0 0 - - -, f 5;
#X floatatom 953 558 5 0 10.555 0 - - -, f 5;
#X obj 940 620 route 0 1;
#X obj 968 665 bng 15 250 50 0 empty empty empty 17 7 0 10 -262144
-1 -1;
#X obj 942 592 <;
#X obj 892 561 + 0.1;
#X obj 965 794 float;
#X floatatom 959 724 5 0 0 0 - - -, f 5;
#X text 802 508 startVal;
#X floatatom 694 588 5 0 10.555 0 - - -, f 5;
#X obj 681 650 route 0 1;
#X obj 709 695 bng 15 250 50 0 empty empty empty 17 7 0 10 -262144
-1 -1;
#X obj 706 824 float;
#X floatatom 742 744 5 0 0 0 - - -, f 5;
#X obj 683 622 >;
#X obj 633 591 - 0.1;
#X floatatom 796 861 5 0 0 0 - - -, f 5;
#X obj 738 871 bng 15 250 50 0 empty empty empty 17 7 0 10 -262144
-1 -1;
#X obj 713 786 - 0.2;
#X obj 972 756 + 0.2;
#X text 183 646 If finger moves UP;
#X text 441 618 If finger moves DOWN;
#X text -255 702 If finger moves to LEFT;
#X text -119 125 Turn manos osc on;
#X floatatom -226 366 0 0 0 0 - - -;
#X floatatom 43 270 5 0 0 0 - - -, f 5;
#X floatatom 110 268 5 0 0 0 - - -, f 5;
#X floatatom 182 264 5 0 0 0 - - -, f 5;
#X text 77 270 x;
#X text 92 265 y;
#X obj 36 199 unpack s f f f f f;
#X text 48 309 z;
#X obj -1 35 expr pow((pow(($f1-$f2) \, 2) + pow(($f3-$f4) \, 2) +
pow(($f5-$f6) \, 2)) \, .5);
#X text 2 16 3D DISTANCE FORMULA;
#X obj 35 170 routeOSC /finger0-1;
#X text 627 671 If finger moves BACK;
#X text 886 643 If finger moves FORWARD;
#X text -720 52 1;
#X text -691 53 read a soundfile into a table;
#X obj -690 140 soundfiler;
#N canvas 0 22 450 300 (subpatch) 0;
#X array sample-table 4e+06 float 0;
#X coords 0 1.02 4e+06 -1.02 200 130 1;
#X restore -563 160 graph;
#X text -721 271 2;
#X obj -691 86 bng 15 250 50 0 empty empty empty 17 7 0 10 -4034 -1
-1;
#X obj -676 488 line~;
#X obj -675 523 tabread4~ sample-table;
#X obj -680 422 pack 0 1 1;
#X floatatom -617 387 15 0 0 0 - - -, f 15;
#X msg -680 456 \$1 \, \$2 \$3;
#X obj -597 556 hsl 128 15 0 15 0 0 empty empty gain -2 -8 0 10 -258113
-1 -1 12700 1;
#X obj -614 610 line~;
#X msg -614 587 \$1 20;
#X obj -673 625 dac~;
#X obj -676 564 *~;
#X msg -714 349 0;
#X text -572 353 convert from samples to ms;
#X obj -714 313 bng 15 250 50 0 empty empty empty 17 7 0 10 -4034 -1
-1;
#X text -708 271 scratch a sound file;
#X text 368 -2 START/STOP calibrate hand;
#X obj -683 1161 hip~ 5;
#X text -624 1163 high pass filter to cut DC;
#X obj -683 1129 tabread4~ sample-table;
#X obj -671 1089 line~;
#X obj -671 1064 pack 0 100;
#X text -597 1098 read from the table;
#X text -606 1116 (the input is the index in samples);
#X obj -693 962 hsl 128 15 0 1 0 0 empty empty empty -2 -8 0 10 -4034
-1 -1 0 1;
#X obj -671 1029 * 1;
#X text -547 963 this slider goes from 0 to 1;
#X floatatom -696 996 5 0 0 0 - - -, f 5;
#X text -642 1026 convert to sample number;
#X obj -614 1195 hsl 128 15 0 0.5 0 0 empty empty gain -2 -8 0 10 -258113
-1 -1 0 1;
#X obj -624 1249 line~;
#X msg -624 1226 \$1 20;
#X obj -683 1264 dac~;
#X obj -686 1203 *~;
#X obj -654 995 r sample-length;
#X text -601 1065 ramp to sound smoother;
#X obj 371 879 clip 0 127;
#X obj 527 731 - 1;
#X obj 268 761 + 1;
#X floatatom 374 909 5 0 0 0 - - -, f 5;
#X floatatom -296 367 5 0 0 0 - - -, f 5;
#X text -323 278 PINCHING MOTION;
#X obj -343 300 routeOSC /hand0;
#X obj -338 333 unpack s i i f f f;
#X text -360 366 numFingers;
#X obj -296 399 route 2;
#X text -384 382 if there's two fingers;
#X obj -697 744 t f f;
#X obj -691 782 -;
#X floatatom -693 815 5 0 0 0 - - -, f 5;
#X floatatom -706 720 5 0 0 0 - - -, f 5;
#X obj -710 6 lm;
#X obj -351 1102 r hand;
#X obj -352 1129 route 0;
#X obj -329 1192 route 0;
#X obj -362 1228 route velocity;
#X obj -372 1264 print finger-0-vel;
#X obj -352 1157 route fingers;
#X obj -438 443 r hand;
#X obj -439 470 route 0;
#X obj -439 498 route palm_velocity;
#X obj -416 533 unpack x y z;
#X floatatom -361 573 15 0 0 0 - - -, f 15;
#X text -380 1092 EX HOW TO GET STUFF FROM LM EXTERNAL;
#X text -700 935 4 reference only--------------------------------------------
;
#X obj -356 609 < 700;
#X obj -411 594 > 700;
#X msg -690 115 read -resize MARAgood.wav sample-table;
#X obj -617 355 / 48;
#X obj -48 866 clip 0 50;
#X connect 2 0 20 0;
#X connect 2 0 112 0;
#X connect 2 0 161 0;
#X connect 3 0 2 1;
#X connect 4 0 1 0;
#X connect 5 0 4 1;
#X connect 7 0 8 0;
#X connect 10 0 4 0;
#X connect 10 0 2 0;
#X connect 11 0 22 1;
#X connect 11 0 24 0;
#X connect 11 0 36 0;
#X connect 11 0 110 0;
#X connect 12 0 57 0;
#X connect 12 0 65 0;
#X connect 12 0 55 1;
#X connect 12 0 110 2;
#X connect 13 0 77 1;
#X connect 13 0 87 0;
#X connect 13 0 79 0;
#X connect 13 0 110 4;
#X connect 17 0 0 0;
#X connect 17 0 10 0;
#X connect 18 3 11 0;
#X connect 18 4 12 0;
#X connect 18 5 13 0;
#X connect 19 0 34 0;
#X connect 19 0 40 0;
#X connect 19 0 46 0;
#X connect 20 0 18 0;
#X connect 21 0 22 0;
#X connect 21 0 28 0;
#X connect 21 0 55 0;
#X connect 21 0 77 0;
#X connect 21 0 133 0;
#X connect 22 0 23 0;
#X connect 23 0 32 0;
#X connect 23 0 43 0;
#X connect 24 0 31 1;
#X connect 25 1 26 0;
#X connect 26 0 33 0;
#X connect 26 0 34 0;
#X connect 27 0 30 0;
#X connect 28 0 27 0;
#X connect 29 0 27 1;
#X connect 30 0 31 0;
#X connect 30 0 42 0;
#X connect 30 0 70 0;
#X connect 30 0 60 0;
#X connect 30 0 92 0;
#X connect 30 0 82 0;
#X connect 31 0 25 0;
#X connect 32 0 31 0;
#X connect 33 0 188 0;
#X connect 34 0 54 0;
#X connect 36 0 42 1;
#X connect 37 1 38 0;
#X connect 38 0 39 0;
#X connect 38 0 40 0;
#X connect 39 0 188 0;
#X connect 40 0 53 0;
#X connect 42 0 37 0;
#X connect 43 0 42 0;
#X connect 44 0 19 0;
#X connect 45 0 44 0;
#X connect 46 0 49 0;
#X connect 48 0 47 0;
#X connect 49 0 47 0;
#X connect 49 0 47 1;
#X connect 50 0 49 1;
#X connect 51 0 52 0;
#X connect 52 0 50 0;
#X connect 53 0 39 1;
#X connect 54 0 33 1;
#X connect 55 0 56 0;
#X connect 56 0 61 0;
#X connect 56 0 71 0;
#X connect 57 0 60 1;
#X connect 58 1 59 0;
#X connect 59 0 62 0;
#X connect 59 0 63 0;
#X connect 60 0 58 0;
#X connect 61 0 60 0;
#X connect 62 0 155 0;
#X connect 63 0 156 0;
#X connect 65 0 70 1;
#X connect 66 1 67 0;
#X connect 67 0 68 0;
#X connect 67 0 69 0;
#X connect 68 0 155 0;
#X connect 69 0 157 0;
#X connect 70 0 66 0;
#X connect 71 0 70 0;
#X connect 72 0 155 0;
#X connect 73 0 72 0;
#X connect 76 0 85 0;
#X connect 76 0 91 0;
#X connect 77 0 78 0;
#X connect 78 0 83 0;
#X connect 78 0 93 0;
#X connect 79 0 82 1;
#X connect 80 1 81 0;
#X connect 81 0 84 0;
#X connect 81 0 85 0;
#X connect 82 0 80 0;
#X connect 83 0 82 0;
#X connect 84 0 76 0;
#X connect 85 0 97 0;
#X connect 87 0 92 1;
#X connect 88 1 89 0;
#X connect 89 0 90 0;
#X connect 89 0 91 0;
#X connect 90 0 76 0;
#X connect 91 0 96 0;
#X connect 92 0 88 0;
#X connect 93 0 92 0;
#X connect 94 0 76 0;
#X connect 95 0 94 0;
#X connect 96 0 90 1;
#X connect 97 0 84 1;
#X connect 103 0 110 1;
#X connect 104 0 110 3;
#X connect 105 0 110 5;
#X connect 108 3 103 0;
#X connect 108 4 104 0;
#X connect 108 5 105 0;
#X connect 110 0 102 0;
#X connect 112 0 108 0;
#X connect 117 0 123 1;
#X connect 117 0 187 0;
#X connect 120 0 186 0;
#X connect 121 0 122 0;
#X connect 122 0 130 0;
#X connect 123 0 125 0;
#X connect 124 0 123 2;
#X connect 125 0 121 0;
#X connect 126 0 128 0;
#X connect 127 0 130 1;
#X connect 128 0 127 0;
#X connect 130 0 129 0;
#X connect 130 0 129 1;
#X connect 131 0 123 0;
#X connect 133 0 131 0;
#X connect 136 0 152 0;
#X connect 138 0 136 0;
#X connect 139 0 138 0;
#X connect 140 0 139 0;
#X connect 143 0 146 0;
#X connect 144 0 140 0;
#X connect 146 0 144 0;
#X connect 148 0 150 0;
#X connect 149 0 152 1;
#X connect 150 0 149 0;
#X connect 152 0 151 0;
#X connect 152 0 151 1;
#X connect 153 0 144 1;
#X connect 155 0 51 0;
#X connect 155 0 69 0;
#X connect 155 0 63 0;
#X connect 155 0 158 0;
#X connect 156 0 62 1;
#X connect 157 0 68 1;
#X connect 159 0 164 0;
#X connect 161 0 162 0;
#X connect 162 2 159 0;
#X connect 166 0 167 1;
#X connect 166 1 167 0;
#X connect 167 0 168 0;
#X connect 169 0 166 0;
#X connect 171 0 172 0;
#X connect 172 0 176 0;
#X connect 173 0 174 0;
#X connect 174 0 175 0;
#X connect 176 0 173 0;
#X connect 177 0 178 0;
#X connect 178 0 179 0;
#X connect 179 0 180 0;
#X connect 180 2 181 0;
#X connect 181 0 184 0;
#X connect 181 0 185 0;
#X connect 186 0 117 0;
#X connect 187 0 124 0;
#X connect 188 0 19 0;
