#N canvas 154 42 1182 480 10;
#X obj -542 25 cnv 40 400 400 empty empty Leapmotion_external_example
20 12 0 14 -204786 -66577 0;
#X obj -522 102 r hand;
#X obj -522 137 route 0;
#X obj -522 165 route palm_velocity;
#X obj -522 199 unpack x y z;
#X floatatom -523 242 5 0 0 0 - - -, f 5;
#X floatatom -473 242 5 0 0 0 - - -, f 5;
#X floatatom -419 242 5 0 0 0 - - -, f 5;
#X obj -289 92 r hand;
#X obj -289 120 route 0;
#X obj -289 179 route 0;
#X obj -289 212 route velocity;
#X obj -289 148 route fingers;
#X obj -1237 26 cnv 30 650 400 empty empty ManosOSC_example 20 12 0
14 -228856 -66577 0;
#X obj -1061 116 bng 15 250 50 0 empty empty empty 17 7 0 10 -262144
-1 -1;
#X obj -1183 268 print;
#X obj -1031 197 spigot;
#X obj -998 174 tgl 15 0 empty empty empty 17 7 0 10 -262144 -1 -1
0 1;
#X obj -1182 234 spigot;
#X obj -1121 209 tgl 15 0 empty empty empty 17 7 0 10 -262144 -1 -1
0 1;
#X text -1211 292 See what is coming in;
#X obj -1039 131 unpackOSC;
#X floatatom -975 358 5 0 0 0 - - -, f 5;
#X floatatom -920 358 5 0 0 0 - - -, f 5;
#X text -990 358 y;
#X obj -1039 85 udpreceive 7110;
#X obj -1026 310 unpack s f f f f f;
#X obj -1031 277 routeOSC /finger0-0;
#X text -978 172 Turn manos osc on;
#X text -934 357 z;
#X floatatom -1036 358 5 0 0 0 - - -, f 5;
#X text -1051 358 x;
#X floatatom -781 359 5 0 0 0 - - -, f 5;
#X floatatom -726 359 5 0 0 0 - - -, f 5;
#X text -796 359 y;
#X obj -832 311 unpack s f f f f f;
#X text -740 358 z;
#X floatatom -842 359 5 0 0 0 - - -, f 5;
#X text -857 359 x;
#X obj -837 278 routeOSC /finger0-1;
#X obj -289 245 print finger-0-vel;
#X text -524 296 Make sure leapmotion-help.pd \, hand.pd \, gesture.pd
\, point.pd \, are in the same directory and that the leapmotion-help
object is open and running., f 51;
#X connect 1 0 2 0;
#X connect 2 0 3 0;
#X connect 3 0 4 0;
#X connect 4 0 5 0;
#X connect 4 1 6 0;
#X connect 4 2 7 0;
#X connect 8 0 9 0;
#X connect 9 0 12 0;
#X connect 10 0 11 0;
#X connect 11 0 40 0;
#X connect 12 0 10 0;
#X connect 16 0 27 0;
#X connect 16 0 39 0;
#X connect 17 0 16 1;
#X connect 18 0 15 0;
#X connect 19 0 18 1;
#X connect 21 0 18 0;
#X connect 21 0 16 0;
#X connect 25 0 14 0;
#X connect 25 0 21 0;
#X connect 26 3 30 0;
#X connect 26 4 22 0;
#X connect 26 5 23 0;
#X connect 27 0 26 0;
#X connect 35 3 37 0;
#X connect 35 4 32 0;
#X connect 35 5 33 0;
#X connect 39 0 35 0;
